<mxfile host="app.diagrams.net" agent="Mozilla/5.0 (Windows NT 10.0; Win64; x64) AppleWebKit/537.36 (KHTML, like Gecko) Chrome/141.0.0.0 Safari/537.36 Edg/141.0.0.0" version="28.1.0">
  <diagram name="ToDos" id="vVcwKh3MKqLaBlqEA8aA">
    <mxGraphModel dx="988" dy="690" grid="1" gridSize="10" guides="1" tooltips="1" connect="1" arrows="1" fold="1" page="1" pageScale="1" pageWidth="850" pageHeight="1100" math="0" shadow="0">
      <root>
        <mxCell id="0" />
        <mxCell id="1" parent="0" />
        <mxCell id="V3K73riC1fiLPj_OunIJ-1" value="&lt;b&gt;/todos view&lt;/b&gt; (Task Manager App)" style="rounded=1;whiteSpace=wrap;html=1;strokeColor=#000000;fillColor=#FFFFFF;fontSize=16;fontStyle=1;" vertex="1" parent="1">
          <mxGeometry x="40" y="40" width="1000" height="600" as="geometry" />
        </mxCell>
        <mxCell id="V3K73riC1fiLPj_OunIJ-2" value="" style="rounded=0;whiteSpace=wrap;html=1;strokeColor=#000000;fillColor=#222222;fontColor=#FFFFFF;" vertex="1" parent="V3K73riC1fiLPj_OunIJ-1">
          <mxGeometry width="1000" height="60" as="geometry" />
        </mxCell>
        <mxCell id="V3K73riC1fiLPj_OunIJ-3" value="To Dos" style="whiteSpace=wrap;html=1;strokeColor=none;fillColor=none;fontColor=#FFFFFF;fontSize=16;fontStyle=1;" vertex="1" parent="V3K73riC1fiLPj_OunIJ-2">
          <mxGeometry x="20" y="18" width="80" height="24" as="geometry" />
        </mxCell>
        <mxCell id="V3K73riC1fiLPj_OunIJ-4" value="Contact" style="whiteSpace=wrap;html=1;strokeColor=none;fillColor=none;fontColor=#FFFFFF;fontSize=16;fontStyle=0;" vertex="1" parent="V3K73riC1fiLPj_OunIJ-2">
          <mxGeometry x="110" y="18" width="100" height="24" as="geometry" />
        </mxCell>
        <mxCell id="V3K73riC1fiLPj_OunIJ-5" value="To Do List" style="whiteSpace=wrap;html=1;strokeColor=none;fillColor=none;fontSize=20;fontStyle=1;" vertex="1" parent="V3K73riC1fiLPj_OunIJ-1">
          <mxGeometry x="20" y="70" width="200" height="30" as="geometry" />
        </mxCell>
        <mxCell id="V3K73riC1fiLPj_OunIJ-6" value="" style="rounded=0;whiteSpace=wrap;html=1;strokeColor=none;fillColor=none;" vertex="1" parent="V3K73riC1fiLPj_OunIJ-1">
          <mxGeometry x="20" y="110" width="960" height="460" as="geometry" />
        </mxCell>
        <mxCell id="V3K73riC1fiLPj_OunIJ-7" value="" style="rounded=1;whiteSpace=wrap;html=1;strokeColor=#000000;fillColor=#F4F4F4;" vertex="1" parent="V3K73riC1fiLPj_OunIJ-6">
          <mxGeometry width="280" height="250" as="geometry" />
        </mxCell>
        <mxCell id="V3K73riC1fiLPj_OunIJ-8" value="Add New Task" style="whiteSpace=wrap;html=1;strokeColor=none;fillColor=none;fontSize=16;fontStyle=1;" vertex="1" parent="V3K73riC1fiLPj_OunIJ-7">
          <mxGeometry x="20" y="20" width="200" height="24" as="geometry" />
        </mxCell>
        <mxCell id="V3K73riC1fiLPj_OunIJ-9" value="Task:" style="whiteSpace=wrap;html=1;strokeColor=none;fillColor=none;fontSize=12;" vertex="1" parent="V3K73riC1fiLPj_OunIJ-7">
          <mxGeometry x="20" y="60" width="60" height="20" as="geometry" />
        </mxCell>
        <mxCell id="V3K73riC1fiLPj_OunIJ-10" value="&lt;input type=&#39;text&#39; /&gt;" style="rounded=0;whiteSpace=wrap;html=1;strokeColor=#000000;fillColor=#FFFFFF;fontSize=12;fontColor=#999999;" vertex="1" parent="V3K73riC1fiLPj_OunIJ-7">
          <mxGeometry x="20" y="80" width="240" height="30" as="geometry" />
        </mxCell>
        <mxCell id="V3K73riC1fiLPj_OunIJ-11" value="Add To List" style="rounded=1;whiteSpace=wrap;html=1;strokeColor=#000000;fillColor=#FFFFFF;fontSize=12;fontStyle=1;" vertex="1" parent="V3K73riC1fiLPj_OunIJ-7">
          <mxGeometry x="20" y="120" width="150" height="30" as="geometry" />
        </mxCell>
        <mxCell id="V3K73riC1fiLPj_OunIJ-13" value="" style="rounded=1;whiteSpace=wrap;html=1;strokeColor=#000000;fillColor=#FFFFFF;" vertex="1" parent="V3K73riC1fiLPj_OunIJ-6">
          <mxGeometry x="300" width="660" height="460" as="geometry" />
        </mxCell>
        <mxCell id="V3K73riC1fiLPj_OunIJ-14" value="Filter:" style="whiteSpace=wrap;html=1;strokeColor=none;fillColor=none;fontSize=12;fontStyle=1;" vertex="1" parent="V3K73riC1fiLPj_OunIJ-13">
          <mxGeometry x="20" y="20" width="60" height="20" as="geometry" />
        </mxCell>
        <mxCell id="V3K73riC1fiLPj_OunIJ-15" value="[ All ]" style="rounded=1;whiteSpace=wrap;html=1;strokeColor=#000000;fillColor=#FFFFFF;fontSize=11;" vertex="1" parent="V3K73riC1fiLPj_OunIJ-13">
          <mxGeometry x="80" y="16" width="60" height="28" as="geometry" />
        </mxCell>
        <mxCell id="V3K73riC1fiLPj_OunIJ-16" value="[ Completed ]" style="rounded=1;whiteSpace=wrap;html=1;strokeColor=#000000;fillColor=#FFFFFF;fontSize=11;" vertex="1" parent="V3K73riC1fiLPj_OunIJ-13">
          <mxGeometry x="150" y="16" width="90" height="28" as="geometry" />
        </mxCell>
        <mxCell id="V3K73riC1fiLPj_OunIJ-17" value="[ Incomplete ]" style="rounded=1;whiteSpace=wrap;html=1;strokeColor=#000000;fillColor=#FFFFFF;fontSize=11;" vertex="1" parent="V3K73riC1fiLPj_OunIJ-13">
          <mxGeometry x="250" y="16" width="90" height="28" as="geometry" />
        </mxCell>
        <mxCell id="V3K73riC1fiLPj_OunIJ-18" value="Tasks" style="whiteSpace=wrap;html=1;strokeColor=none;fillColor=none;fontSize=16;fontStyle=1;" vertex="1" parent="V3K73riC1fiLPj_OunIJ-13">
          <mxGeometry x="20" y="60" width="200" height="24" as="geometry" />
        </mxCell>
        <mxCell id="V3K73riC1fiLPj_OunIJ-19" value="" style="rounded=0;whiteSpace=wrap;html=1;strokeColor=#000000;fillColor=#FAFAFA;" vertex="1" parent="V3K73riC1fiLPj_OunIJ-13">
          <mxGeometry x="20" y="100" width="620" height="50" as="geometry" />
        </mxCell>
        <mxCell id="V3K73riC1fiLPj_OunIJ-20" value="&lt;strike&gt;Task A&lt;/strike&gt;" style="whiteSpace=wrap;html=1;strokeColor=none;fillColor=none;fontSize=12;fontColor=#888888;" vertex="1" parent="V3K73riC1fiLPj_OunIJ-19">
          <mxGeometry x="10" y="15" width="200" height="20" as="geometry" />
        </mxCell>
        <mxCell id="V3K73riC1fiLPj_OunIJ-21" value="Complete" style="rounded=1;whiteSpace=wrap;html=1;strokeColor=#000000;fillColor=#FFFFFF;fontSize=11;" vertex="1" parent="V3K73riC1fiLPj_OunIJ-19">
          <mxGeometry x="470" y="10" width="60" height="30" as="geometry" />
        </mxCell>
        <mxCell id="V3K73riC1fiLPj_OunIJ-22" value="Delete" style="rounded=1;whiteSpace=wrap;html=1;strokeColor=#000000;fillColor=#FFFFFF;fontSize=11;" vertex="1" parent="V3K73riC1fiLPj_OunIJ-19">
          <mxGeometry x="540" y="10" width="60" height="30" as="geometry" />
        </mxCell>
        <mxCell id="V3K73riC1fiLPj_OunIJ-23" value="" style="rounded=0;whiteSpace=wrap;html=1;strokeColor=#000000;fillColor=#FFFFFF;" vertex="1" parent="V3K73riC1fiLPj_OunIJ-13">
          <mxGeometry x="20" y="160" width="620" height="50" as="geometry" />
        </mxCell>
        <mxCell id="V3K73riC1fiLPj_OunIJ-24" value="Task B" style="whiteSpace=wrap;html=1;strokeColor=none;fillColor=none;fontSize=12;" vertex="1" parent="V3K73riC1fiLPj_OunIJ-23">
          <mxGeometry x="10" y="15" width="200" height="20" as="geometry" />
        </mxCell>
        <mxCell id="V3K73riC1fiLPj_OunIJ-25" value="Incomplete" style="rounded=1;whiteSpace=wrap;html=1;strokeColor=#000000;fillColor=#FFFFFF;fontSize=11;" vertex="1" parent="V3K73riC1fiLPj_OunIJ-23">
          <mxGeometry x="470" y="10" width="60" height="30" as="geometry" />
        </mxCell>
        <mxCell id="V3K73riC1fiLPj_OunIJ-26" value="Delete" style="rounded=1;whiteSpace=wrap;html=1;strokeColor=#000000;fillColor=#FFFFFF;fontSize=11;" vertex="1" parent="V3K73riC1fiLPj_OunIJ-23">
          <mxGeometry x="540" y="10" width="60" height="30" as="geometry" />
        </mxCell>
      </root>
    </mxGraphModel>
  </diagram>
</mxfile>
